<svg width="573.6" height="172.33511682334574" viewBox="0 0 369.1162790697674 110.89905347783656">
    <g transform="matrix(1.2606512435819457,0,0,1.2606512435819457,279.4803323505306,-7.943848785989129)" fill="#118df0">
      <path xmlns="http://www.w3.org/2000/svg" d="M69.8,42.4c0-0.2,0-0.4,0-0.5c0,0.1,0,0.3,0,0.4c0,0.3,0,0.7,0.1,1C69.8,43,69.8,42.7,69.8,42.4z"></path>
      <path xmlns="http://www.w3.org/2000/svg" d="M65.6,43c-1.1,0-2.1,0.3-2.9,0.8c-0.9-1.9-2.8-3.2-5-3.2c-1.1,0-2.1,0.3-2.9,0.8c-0.9-1.9-2.8-3.2-5-3.2  c-0.8,0-1.7,0.2-2.4,0.5v-15c0-3.1-2.5-5.5-5.5-5.5s-5.5,2.5-5.5,5.5v25l-1.7-3.5c-0.8-2.1-2.9-3.6-5.2-3.6c-0.6,0-1.3,0.1-1.9,0.3  c-1.4,0.5-2.5,1.5-3.1,2.9c-0.6,1.3-0.7,2.8-0.2,4.2c0,0,0,0.1,0.1,0.1l11.5,24.4c0,0.1,0.1,0.1,0.1,0.2c1.2,1.8,2.6,3.4,4.3,4.8  c0.1,0.1,0.2,0.1,0.3,0.2l0,0c0.1,0.1,0.1,0.1,0.2,0.2c3.3,2.4,7.2,3.7,11.3,3.7c10.2,0,18.6-8,19-18.1c0,0,0-0.1,0-0.2  c0-0.3,0-0.6,0-0.9c0-0.1,0-0.1,0-0.2l0-0.2c0-0.2,0-0.3,0-0.5V48.5C71.2,45.5,68.7,43,65.6,43z M52.1,79.5c-3.4,0-6.6-1-9.3-3  l-0.2-0.2c-0.2-0.2-0.4-0.3-0.6-0.4c-1.3-1.1-2.4-2.3-3.3-3.7L27.3,48c-0.2-0.6-0.2-1.2,0.1-1.8c0.3-0.6,0.7-1,1.3-1.2  c1.2-0.4,2.6,0.2,3,1.4c0,0,0,0.1,0.1,0.1l4.7,10c0.3,0.7,1.1,1,1.8,0.9c0.7-0.2,1.2-0.8,1.2-1.5V23.7c0-1.3,1.1-2.4,2.4-2.4  c1.3,0,2.4,1.1,2.4,2.4v20c0,0.9,0.7,1.6,1.6,1.6s1.6-0.7,1.6-1.6c0-1.3,1.1-2.4,2.4-2.4c1.3,0,2.4,1.1,2.4,2.4v2.4  c0,0.9,0.7,1.6,1.6,1.6c0.9,0,1.6-0.7,1.6-1.6c0-1.3,1.1-2.4,2.4-2.4s2.4,1.1,2.4,2.4v2.4c0,0.9,0.7,1.6,1.6,1.6s1.6-0.7,1.6-1.6  c0-1.3,1.1-2.4,2.4-2.4c1.3,0,2.4,1.1,2.4,2.4l0,14.3l0,0.4c0,0.2,0,0.3,0,0.5c0,0.3,0,0.5,0,0.8C67.5,72.9,60.6,79.5,52.1,79.5z"></path>
      <path xmlns="http://www.w3.org/2000/svg" d="M32.7,24.4h-7.9l1.8-1.8c0.6-0.6,0.6-1.6,0-2.2c-0.6-0.6-1.6-0.6-2.2,0l-4.5,4.5l0,0c-0.2,0.2-0.3,0.3-0.3,0.5  c-0.2,0.4-0.2,0.8,0,1.2c0.1,0.2,0.2,0.4,0.3,0.5l0,0l4.5,4.5c0.3,0.3,0.7,0.5,1.1,0.5s0.8-0.2,1.1-0.5c0.6-0.6,0.6-1.6,0-2.2  l-1.8-1.8h7.9c0.9,0,1.6-0.7,1.6-1.6C34.3,25.1,33.6,24.4,32.7,24.4z"></path>
      <path xmlns="http://www.w3.org/2000/svg" d="M64.3,25.4c-0.1-0.2-0.2-0.4-0.3-0.5l0,0C64.1,25,64.2,25.2,64.3,25.4z"></path>
      <path xmlns="http://www.w3.org/2000/svg" d="M63.9,27.1c0.1-0.1,0.3-0.3,0.3-0.5C64.2,26.8,64.1,26.9,63.9,27.1L63.9,27.1z"></path>
      <path xmlns="http://www.w3.org/2000/svg" d="M64.3,25.4c-0.1-0.2-0.2-0.4-0.3-0.5l0,0l-4.5-4.5c-0.6-0.6-1.6-0.6-2.2,0c-0.6,0.6-0.6,1.6,0,2.2l1.8,1.8h-7.9  c-0.9,0-1.6,0.7-1.6,1.6c0,0.9,0.7,1.6,1.6,1.6H59l-1.8,1.8c-0.6,0.6-0.6,1.6,0,2.2c0.3,0.3,0.7,0.5,1.1,0.5s0.8-0.2,1.1-0.5  l4.5-4.5l0,0c0.2-0.2,0.3-0.3,0.3-0.5C64.4,26.2,64.4,25.8,64.3,25.4z"></path>
    </g>
    <g transform="matrix(2.147683795540158,0,0,2.147683795540158,-2.9766911006174004,-21.476837955401578)" fill="#118df0">
      <path d="M13.027 40.39063 c-6.0547 0 -10.781 -2.9102 -11.641 -8.2031 l6.0547 -1.3867 c0.39063 3.1641 2.7148 4.8047 5.8203 4.8047 c2.3828 0 4.2773 -1.0547 4.2578 -3.4375 c-0.019531 -2.6563 -3.1445 -3.4961 -6.582 -4.5508 c-4.1406 -1.2891 -8.5742 -2.8125 -8.5742 -8.0078 c0 -5.2539 4.2969 -8.2227 9.9609 -8.2227 c4.9609 0 9.9609 2.0117 11.094 7.4219 l-5.6641 1.4063 c-0.52734 -2.8125 -2.4219 -4.043 -5.0781 -4.043 c-2.3633 0 -4.375 0.97656 -4.375 3.3008 c0 2.168 2.7734 2.8906 5.9766 3.8477 c4.2578 1.2891 9.2969 2.9297 9.2969 8.5547 c0 5.9961 -5.0195 8.5156 -10.547 8.5156 z M50.6302890625 19.922 l5.8203 0 l-7.0313 20.098 l-5.2148 0 l-4.6484 -13.262 l-4.6875 13.262 l-5.293 0 l-6.8945 -20.098 l5.8008 0 l4.1406 13.066 l4.7461 -13.066 l4.3164 0 l4.7266 13.027 z M59.560596875 16.914 c-1.7773 0 -3.2617 -1.4453 -3.2617 -3.2422 c0 -1.7773 1.4844 -3.2227 3.2617 -3.2227 c1.7383 0 3.2227 1.4453 3.2227 3.2227 c0 1.7969 -1.4844 3.2422 -3.2227 3.2422 z M56.689496875 40 l0 -20.078 l5.6641 0 l0 20.078 l-5.6641 0 z M65.2881296875 40 l0 -30 l5.6836 0 l0 30 l-5.6836 0 z M90.37109375 34.5508 c0 2.4609 0.23438 4.0234 0.48828 4.9023 l0 0.54688 l-5.2539 0 l-0.44922 -2.1875 c-1.5039 1.8164 -4.1016 2.5781 -6.4453 2.5781 c-3.1641 0 -6.25 -1.4063 -6.25 -5.5859 c0 -4.1602 3.1055 -5.5664 7.3047 -6.4844 l3.3008 -0.74219 c1.4258 -0.33203 1.9336 -0.82031 1.9336 -1.6406 c0 -1.9727 -1.7969 -2.5195 -3.3789 -2.5195 c-2.0313 0 -3.5742 0.80078 -3.9258 3.0664 l-4.9805 -0.89844 c0.83984 -4.1602 3.8867 -6.0547 9.2188 -6.0547 c4.0234 0 8.4375 1.1914 8.4375 7.2461 l0 7.7734 z M80.46879375 36.582 c2.6758 0 4.8242 -1.7773 4.8242 -5.7617 l-4.7656 1.3477 c-1.5625 0.37109 -2.6953 0.91797 -2.6953 2.2656 c0 1.4453 1.1914 2.1484 2.6367 2.1484 z M104.8099453125 19.531 c4.8242 0 7.4805 2.5 7.4805 6.9531 l0 13.516 l-5.6445 0 l0 -12.305 c0 -2.6758 -1.6602 -3.6523 -3.5938 -3.6523 c-2.3242 0 -4.4336 1.1719 -4.4727 4.8828 l0 11.074 l-5.625 0 l0 -20.078 l5.625 0 l0 2.2266 c1.4063 -1.6602 3.5742 -2.6172 6.2305 -2.6172 z M128.681359375 19.922 l5.3516 0 l0 18.574 c0 7.8125 -4.2383 10.977 -10.645 10.977 c-5.7617 0 -8.8867 -2.4219 -10.352 -6.2305 l4.668 -1.9922 c1.1328 2.5977 2.7734 3.8477 5.4688 3.8477 c3.5547 0 5.2148 -2.2266 5.2148 -6.1914 l0 -2.3438 c-1.1719 1.6016 -3.4766 2.7344 -6.0938 2.7344 c-4.9805 0 -9.1602 -3.9258 -9.1602 -9.9219 c0 -6.0156 4.1992 -9.8438 9.1992 -9.8438 c2.8125 0 5.1172 1.25 6.2109 3.0469 z M123.740359375 34.7461 c2.9297 0 5.1953 -2.3828 5.1953 -5.3711 c0 -3.0078 -2.2266 -5.3906 -5.1953 -5.3906 c-2.9492 0 -5.1758 2.2852 -5.1758 5.3906 c0 3.0664 2.2656 5.3711 5.1758 5.3711 z"></path>
    </g>
    <g transform="matrix(1.2343983681787913,0,0,1.2343983681787913,55.765601631821205,86.21108375983269)" fill="#118df0">
      <path d="M1.26 20 c-0.14 0 -0.26 -0.12 -0.26 -0.26 l0 -11.98 c0 -0.14 0.12 -0.26 0.26 -0.26 l2.6 0 c0.14 0 0.26 0.12 0.26 0.26 l0 9.36 l4.5 0 c0.14 0 0.26 0.12 0.26 0.26 l0 2.36 c0 0.14 -0.12 0.26 -0.26 0.26 l-7.36 0 z M10.88 20 l0 -11.98 c0 -0.5 0.1 -0.6 0.26 -0.6 l8.76 0 c0.14 0 0.26 0.1 0.26 0.24 l0 2.26 c0 0.14 -0.12 0.26 -0.26 0.26 l-5.92 0 l0 2.08 l3.74 0 c0.14 0 0.26 0.12 0.26 0.26 l0 2.24 c0 0.14 -0.12 0.26 -0.26 0.26 l-3.74 0 l0 2.14 l5.9 0 c0.14 0 0.26 0.12 0.26 0.26 l0 2.24 c0 0.14 -0.12 0.26 -0.26 0.26 l-8.74 0 c-0.16 0 -0.26 -0.12 -0.26 0.08 z M22.42 20 c-0.08 0 -0.16 -0.04 -0.2 -0.12 c-0.06 -0.06 -0.06 -0.16 -0.04 -0.24 l4.66 -11.98 c0.04 -0.1 0.14 -0.16 0.24 -0.16 l2.68 0 c0.1 0 0.2 0.06 0.24 0.16 l4.58 11.98 c0.02 0.08 0.02 0.16 -0.04 0.24 c-0.04 0.08 -0.12 0.12 -0.2 0.12 l-2.78 0 c-0.1 0 -0.2 -0.06 -0.24 -0.16 l-0.74 -1.84 l-4.5 0.02 l-0.74 1.82 c-0.04 0.1 -0.14 0.16 -0.24 0.16 l-2.68 0 z M26.9 15.5 l2.88 0 l-1.44 -4.24 z M36.66 20 c-0.16 0 -0.26 -0.12 -0.26 -0.26 l0 -11.98 c0 -0.14 0.1 -0.26 0.26 -0.26 l4.88 0 c1.52 0 2.72 0.38 3.56 1.16 c1.24 1.12 1.66 3.24 1.06 4.8 c-0.22 0.56 -0.6 1.08 -1.08 1.46 c-0.28 0.22 -0.58 0.38 -0.88 0.54 c0.86 1.36 2.16 4.12 2.16 4.12 c0.02 0.04 0.06 0.1 0.06 0.16 c0 0.14 -0.12 0.26 -0.26 0.26 l-2.96 0 c-0.08 0 -0.18 -0.06 -0.22 -0.14 l-1.74 -3.82 c-0.62 0.04 -1.1 0.02 -1.74 0.02 l0 3.68 c0 0.14 -0.12 0.26 -0.26 0.26 l-2.58 0 z M39.5 13.280000000000001 c0 0 2.52 0.28 3.4 -0.3 c0.34 -0.22 0.54 -0.76 0.54 -1.16 c-0.02 -0.44 -0.24 -0.9 -0.6 -1.18 c-0.38 -0.32 -1.32 -0.42 -1.8 -0.42 l-1.54 0.04 l0 3.02 z M48.699999999999996 20 c-0.14 0 -0.26 -0.12 -0.26 -0.26 l0 -11.98 c0 -0.14 0.12 -0.26 0.26 -0.26 l2.36 0 c0.08 0 0.16 0.04 0.22 0.1 l4.6 7.1 l0 -6.94 c0 -0.14 0.12 -0.26 0.26 -0.26 l2.46 0 c0.14 0 0.26 0.12 0.26 0.26 l0 11.98 c0 0.14 -0.12 0.26 -0.26 0.26 l-2.36 0 c-0.08 0 -0.16 -0.04 -0.22 -0.1 l-4.58 -7.06 l0 6.9 c0 0.14 -0.12 0.26 -0.26 0.26 l-2.48 0 z M66.52000000000001 20 c-0.14 0 -0.26 -0.12 -0.26 -0.26 l0 -11.98 c0 -0.14 0.12 -0.26 0.26 -0.26 l2.6 0 c0.14 0 0.26 0.12 0.26 0.26 l0 11.98 c0 0.14 -0.12 0.26 -0.26 0.26 l-2.6 0 z M74.62 20 c-0.14 0 -0.24 -0.12 -0.24 -0.26 l0 -9.44 l-2.74 0 c-0.14 0 -0.26 -0.1 -0.26 -0.24 l0 -2.3 c0 -0.14 0.12 -0.26 0.26 -0.26 l8.58 0 c0.16 0 0.26 0.12 0.26 0.26 l0 2.3 c0 0.14 -0.1 0.24 -0.26 0.24 l-2.74 0 l0 9.44 c0 0.14 -0.12 0.26 -0.26 0.26 l-2.6 0 z M92.38000000000001 20 c-0.14 0 -0.24 -0.12 -0.24 -0.26 l0 -4.76 l-4.24 -7.1 c-0.04 -0.08 -0.04 -0.18 0.02 -0.26 c0.04 -0.08 0.12 -0.12 0.22 -0.12 l2.6 0 c0.1 0 0.18 0.04 0.22 0.14 l2.72 4.44 l2.66 -4.44 c0.04 -0.08 0.12 -0.14 0.22 -0.14 l2.62 0 c0.08 0 0.18 0.04 0.22 0.12 s0.04 0.18 0 0.26 l-4.16 7.02 l0 4.84 c0 0.14 -0.12 0.26 -0.26 0.26 l-2.6 0 z M106.26000000000002 20 c-1.2 0 -2.3 -0.28 -3.26 -0.84 c-0.98 -0.56 -1.76 -1.36 -2.34 -2.32 c-0.56 -0.98 -0.84 -2.1 -0.84 -3.3 c0 -1.18 0.28 -2.28 0.84 -3.26 c0.58 -0.98 1.34 -1.76 2.32 -2.32 s2.08 -0.84 3.28 -0.84 c1.18 0 2.28 0.28 3.26 0.84 s1.76 1.34 2.32 2.32 c0.58 0.98 0.86 2.08 0.86 3.26 c0 1.2 -0.28 2.3 -0.86 3.28 c-0.56 0.98 -1.34 1.76 -2.32 2.34 c-0.98 0.56 -2.08 0.84 -3.26 0.84 z M106.30000000000003 17.12 c0.58 0 1.12 -0.16 1.6 -0.46 c0.5 -0.32 0.9 -0.74 1.18 -1.3 c0.3 -0.54 0.44 -1.16 0.44 -1.82 c0 -0.64 -0.14 -1.26 -0.44 -1.8 c-0.28 -0.54 -0.68 -0.96 -1.18 -1.28 c-0.48 -0.3 -1.02 -0.46 -1.6 -0.46 c-0.6 0 -1.14 0.16 -1.64 0.46 c-0.52 0.32 -0.92 0.74 -1.22 1.28 c-0.3 0.56 -0.44 1.16 -0.44 1.8 c0 0.66 0.14 1.28 0.44 1.82 c0.32 0.54 0.72 0.98 1.22 1.28 c0.5 0.32 1.04 0.48 1.64 0.48 z M119.92000000000002 20 c-1.08 0 -1.86 -0.22 -2.68 -0.66 c-0.8 -0.44 -1.44 -1.06 -1.88 -1.88 c-0.44 -0.8 -0.66 -1.76 -0.66 -2.86 l0 -7.04 c0 -0.14 0.12 -0.24 0.26 -0.24 l2.6 0 c0.14 0 0.24 0.1 0.24 0.24 l0 7.04 c0 0.8 0.22 1.42 0.64 1.86 s0.8 0.66 1.5 0.66 s1.06 -0.22 1.46 -0.64 c0.4 -0.44 0.6 -1.08 0.6 -1.88 l0 -7.04 c0 -0.14 0.12 -0.24 0.26 -0.24 l2.6 0 c0.14 0 0.26 0.1 0.26 0.24 l0 7.04 c0 1.1 -0.22 2.06 -0.66 2.86 c-0.42 0.82 -1.06 1.44 -1.86 1.88 s-1.6 0.66 -2.68 0.66 z M127.38000000000002 20 c-0.16 0 -0.26 -0.12 -0.26 -0.26 l0 -11.98 c0 -0.14 0.1 -0.26 0.26 -0.26 l4.88 0 c1.52 0 2.72 0.38 3.56 1.16 c1.24 1.12 1.66 3.24 1.06 4.8 c-0.22 0.56 -0.6 1.08 -1.08 1.46 c-0.28 0.22 -0.58 0.38 -0.88 0.54 c0.86 1.36 2.16 4.12 2.16 4.12 c0.02 0.04 0.06 0.1 0.06 0.16 c0 0.14 -0.12 0.26 -0.26 0.26 l-2.96 0 c-0.08 0 -0.18 -0.06 -0.22 -0.14 l-1.74 -3.82 c-0.62 0.04 -1.1 0.02 -1.74 0.02 l0 3.68 c0 0.14 -0.12 0.26 -0.26 0.26 l-2.58 0 z M130.22000000000003 13.280000000000001 c0 0 2.52 0.28 3.4 -0.3 c0.34 -0.22 0.54 -0.76 0.54 -1.16 c-0.02 -0.44 -0.24 -0.9 -0.6 -1.18 c-0.38 -0.32 -1.32 -0.42 -1.8 -0.42 l-1.54 0.04 l0 3.02 z M148.70000000000002 20 c-0.12 0 -0.22 -0.08 -0.24 -0.18 l-3.88 -11.98 c-0.04 -0.08 -0.02 -0.16 0.04 -0.24 c0.04 -0.06 0.12 -0.1 0.2 -0.1 l2.8 0 c0.1 0 0.22 0.08 0.24 0.18 l2.08 7.22 l1.9 -6.86 c0.02 -0.12 0.12 -0.2 0.24 -0.2 l2.54 0 c0.12 0 0.22 0.08 0.26 0.2 l1.92 6.86 l2.04 -7.22 c0.04 -0.1 0.14 -0.18 0.26 -0.18 l2.68 0 c0.08 0 0.16 0.04 0.2 0.1 c0.06 0.08 0.06 0.16 0.04 0.24 l-3.9 11.98 c-0.04 0.1 -0.12 0.18 -0.24 0.18 l-2.34 0 c-0.12 0 -0.22 -0.08 -0.24 -0.18 l-2 -7.1 l-2.04 7.1 c-0.02 0.1 -0.12 0.18 -0.24 0.18 l-2.32 0 z M162.10000000000002 20 c-0.08 0 -0.16 -0.04 -0.2 -0.12 c-0.06 -0.06 -0.06 -0.16 -0.04 -0.24 l4.66 -11.98 c0.04 -0.1 0.14 -0.16 0.24 -0.16 l2.68 0 c0.1 0 0.2 0.06 0.24 0.16 l4.58 11.98 c0.02 0.08 0.02 0.16 -0.04 0.24 c-0.04 0.08 -0.12 0.12 -0.2 0.12 l-2.78 0 c-0.1 0 -0.2 -0.06 -0.24 -0.16 l-0.74 -1.84 l-4.5 0.02 l-0.74 1.82 c-0.04 0.1 -0.14 0.16 -0.24 0.16 l-2.68 0 z M166.58000000000004 15.5 l2.88 0 l-1.44 -4.24 z M178.58000000000004 20 c-0.14 0 -0.24 -0.12 -0.24 -0.26 l0 -4.76 l-4.24 -7.1 c-0.04 -0.08 -0.04 -0.18 0.02 -0.26 c0.04 -0.08 0.12 -0.12 0.22 -0.12 l2.6 0 c0.1 0 0.18 0.04 0.22 0.14 l2.72 4.44 l2.66 -4.44 c0.04 -0.08 0.12 -0.14 0.22 -0.14 l2.62 0 c0.08 0 0.18 0.04 0.22 0.12 s0.04 0.18 0 0.26 l-4.16 7.02 l0 4.84 c0 0.14 -0.12 0.26 -0.26 0.26 l-2.6 0 z"></path>
    </g>
</svg>